<?xml version="1.0" encoding="utf-8"?>
<!-- Generator: Adobe Illustrator 25.2.1, SVG Export Plug-In . SVG Version: 6.00 Build 0)  -->
<svg version="1.1" id="Layer_1" xmlns="http://www.w3.org/2000/svg" xmlns:xlink="http://www.w3.org/1999/xlink" x="0px" y="0px"
	 viewBox="0 0 237.8 278.4" style="enable-background:new 0 0 237.8 278.4;" xml:space="preserve">
<style type="text/css">
	.st0{fill:#1D3157;}
</style>
<g>
	<g>
		<g>
			<path class="st0" d="M66.9,203c0.2-1.5,0.2-4.2,0.2-8.1v-4.3c0-1.8-0.1-3.3-0.2-4.6c-0.1-0.8-0.2-1.2-0.3-1.3
				c-0.1-0.1-0.5-0.2-1.2-0.3l-1.2-0.2v-0.9c1.6,0.1,2.8,0.1,3.3,0.1l4,0l3.3-0.1c1.3,0,2.7,0.1,4.1,0.4c1.4,0.3,2.6,0.8,3.8,1.7
				c1.1,0.8,2,1.9,2.6,3.2s0.9,2.7,0.9,4.4c0,3.4-1.1,6.1-3.4,8.4c-2.3,2.2-5.2,3.3-8.9,3.3l-1.8,0c-1.8-0.1-2.9-0.1-3.4-0.1
				c-0.8,0-1.8,0.1-3.1,0.2v-0.7L66.9,203z M70.1,202.9c1.3,0.2,2.5,0.3,3.6,0.3c2.8,0,4.9-0.7,6.5-2.1c1.9-1.7,2.8-4.3,2.8-7.6
				c0-2.9-0.8-5.1-2.3-6.6c-1.6-1.5-3.8-2.3-6.8-2.3c-1.1,0-2.3,0.1-3.7,0.3c-0.1,1-0.2,2-0.2,3.3v9.8
				C69.9,199.6,70,201.3,70.1,202.9z"/>
			<path class="st0" d="M101.9,197.3h-8.6l-1,2.4c-0.7,1.6-1,2.6-1,2.9c0,0.2,0.1,0.4,0.2,0.5c0.1,0.1,0.4,0.2,0.9,0.2l1.4,0.2v0.9
				c-1-0.1-2-0.1-3.2-0.1c-1.4,0-2.7,0-3.8,0.1v-0.9l0.4,0c0.7,0,1.2-0.1,1.3-0.2c0.2-0.1,0.4-0.4,0.7-0.9c0.7-1.4,1.4-3,2.2-4.6
				l4.1-9.3c1.1-2.5,1.8-4.3,2.2-5.4h1l7.6,17.6c0.5,1.2,0.9,1.9,1,2.2c0.2,0.2,0.4,0.4,0.6,0.5s0.7,0.2,1.5,0.2v0.9
				c-1.3-0.1-2.5-0.1-3.7-0.1c-1.1,0-2.6,0-4.4,0.1v-0.9l1.5-0.1c0.5,0,0.8-0.1,0.9-0.2c0.1-0.1,0.2-0.2,0.2-0.4
				c0-0.2-0.1-0.6-0.4-1.4L101.9,197.3z M93.8,196.1h7.5l-3.8-9L93.8,196.1z"/>
			<path class="st0" d="M115.5,186.6v10.3c0,2.4,0,4,0.1,4.9c0.1,0.7,0.2,1.1,0.4,1.3c0.2,0.1,0.6,0.3,1.4,0.3l1,0.1v0.9
				c-1.1-0.1-2.1-0.1-2.9-0.1c-0.6,0-2,0-4.2,0.1v-0.9h1.1c0.6,0,1.1-0.1,1.3-0.3c0.2-0.2,0.3-0.5,0.4-1.1c0.1-1.1,0.2-2.6,0.2-4.5
				v-7.4c0-1.4,0-2.8,0-4.1c0-0.6-0.1-1-0.2-1.2c-0.1-0.2-0.3-0.4-0.6-0.6s-0.6-0.2-1.1-0.2h-0.9v-0.9c1.3,0.1,2.2,0.1,2.9,0.1
				c0.7,0,1.5,0,2.4-0.1c1,1.2,1.9,2.4,2.8,3.5c0.9,1.1,1.8,2.3,2.7,3.4l5.1,6.3c1.8,2.2,3.2,3.8,4,4.7v-9.6c0-4-0.1-6.2-0.2-6.6
				c-0.1-0.4-0.7-0.6-1.7-0.7l-1.1-0.1v-0.9c1.6,0.1,2.9,0.1,3.7,0.1c0.9,0,2.1,0,3.6-0.1v0.9h-1.1c-0.9,0-1.5,0.3-1.6,0.9
				c-0.1,0.4-0.1,2.6-0.1,6.5v6.7c0,1.8,0.1,4,0.2,6.5c-1.4-0.2-2.1-0.4-2.4-0.5c-0.2-0.1-0.4-0.2-0.6-0.5c-1.1-1.2-2.3-2.6-3.5-4.1
				L115.5,186.6z"/>
			<path class="st0" d="M144,194.3v3.7l0,2.1c0,1.3,0,2.3,0,2.9c1.5,0.1,3,0.2,4.7,0.2c1.1,0,2.1-0.1,2.8-0.1c0.5-0.1,1-0.2,1.6-0.4
				c0.2-0.9,0.5-2,0.8-3.3h1c-0.3,2.2-0.4,3.6-0.4,4.4l0,0.7c-1.1,0.1-2.3,0.1-3.4,0.1l-2.3,0c-2.6-0.1-4.5-0.1-5.7-0.1
				c-1.2,0-2.7,0-4.6,0.1v-0.9h0.5c0.9,0,1.4-0.1,1.6-0.2c0.2-0.2,0.4-0.6,0.4-1.2c0.1-0.6,0.1-2,0.1-4.1v-8.2c0-1.3,0-2.4-0.1-3.3
				c-0.1-0.9-0.1-1.4-0.2-1.5c-0.1-0.2-0.2-0.3-0.3-0.4c-0.1-0.1-0.6-0.2-1.3-0.2l-1.1-0.1v-0.9h1.6l1.6,0.1c0.9,0,1.6,0.1,2,0.1
				l5.7-0.1l2.7,0c0.9,0,1.9,0,2.8,0.1c-0.4,1.2-0.6,2.7-0.6,4.6h-1c0-1.1-0.1-2-0.2-2.7c-1.2-0.4-2.6-0.7-4.3-0.7
				c-1.4,0-2.8,0.1-4.3,0.2c0,0.9,0,1.9,0,2.8l0,2.3v3c1,0.1,1.9,0.1,2.6,0.1c2.4,0,3.7-0.1,4-0.2c0.3-0.2,0.5-0.7,0.5-1.5v-1h1
				c-0.1,1.5-0.1,2.7-0.1,3.6c0,0.9,0,2.1,0.1,3.4h-1v-0.9c0-1-0.2-1.5-0.6-1.8c-0.4-0.2-1.7-0.3-3.9-0.3
				C145.8,194.2,144.9,194.2,144,194.3z"/>
			<path class="st0" d="M172.3,184.2c-0.3,1-0.4,2.4-0.4,4.1h-1v-1.2c0-0.8-0.1-1.3-0.3-1.6c-0.2-0.3-0.8-0.6-1.6-0.9
				c-0.9-0.3-1.8-0.5-2.8-0.5c-1.6,0-2.9,0.4-3.8,1.2c-0.9,0.8-1.4,1.8-1.4,3.1c0,0.8,0.2,1.5,0.6,2.1s0.9,1,1.5,1.2
				c0.6,0.2,2,0.5,4,0.7c2.1,0.2,3.4,0.5,4.2,0.8c0.7,0.3,1.3,0.9,1.7,1.6c0.4,0.7,0.6,1.6,0.6,2.6c0,2-0.8,3.7-2.5,5.2
				s-3.9,2.2-6.7,2.2c-1,0-1.9-0.1-2.9-0.3c-1-0.2-1.9-0.5-2.9-0.9c0.2-1.2,0.3-2.7,0.2-4.6h1v0.8c0,1,0.1,1.6,0.1,1.8
				c0.1,0.2,0.3,0.5,0.7,0.7c0.6,0.4,1.2,0.7,2,0.9c0.8,0.2,1.6,0.3,2.4,0.3c1.9,0,3.3-0.4,4.4-1.3c1-0.9,1.5-2,1.5-3.4
				c0-0.8-0.2-1.5-0.5-2s-0.8-1-1.5-1.2c-0.6-0.3-1.8-0.5-3.5-0.6c-2.2-0.2-3.8-0.4-4.6-0.8s-1.4-0.9-1.9-1.7
				c-0.5-0.8-0.7-1.7-0.7-2.9c0-1.9,0.7-3.5,2.1-4.8c1.4-1.2,3.4-1.9,5.8-1.9c1,0,2,0.1,3,0.3C170.2,183.4,171.2,183.8,172.3,184.2z
				"/>
		</g>
		<g>
			<path class="st0" d="M6,231.1v3.7l0,2.1c0,1.3,0,2.3,0,2.9c1.5,0.1,3,0.2,4.7,0.2c1.1,0,2,0,2.8-0.1c0.5-0.1,1-0.2,1.6-0.4
				c0.2-0.9,0.5-2,0.8-3.3h1c-0.3,2.2-0.4,3.6-0.4,4.4l0,0.7c-1.2,0.1-2.3,0.1-3.4,0.1l-2.3,0c-2.6-0.1-4.5-0.1-5.7-0.1
				c-1.2,0-2.7,0-4.7,0.1v-0.9h0.5c0.9,0,1.4-0.1,1.6-0.2c0.2-0.2,0.4-0.6,0.5-1.2c0.1-0.6,0.1-2,0.1-4.1v-8.2c0-1.3,0-2.4-0.1-3.3
				c-0.1-0.9-0.1-1.4-0.2-1.5c-0.1-0.2-0.2-0.3-0.3-0.4s-0.6-0.2-1.3-0.2L0,220.9V220h1.6l1.6,0c0.9,0,1.6,0,2,0L11,220l2.7,0
				c0.9,0,1.9,0,2.8,0.1c-0.4,1.2-0.6,2.7-0.6,4.6h-1c0-1.1,0-2-0.2-2.7c-1.2-0.4-2.6-0.7-4.3-0.7c-1.4,0-2.8,0.1-4.3,0.2
				c0,0.9,0,1.9,0,2.8l0,2.3v3c1,0.1,1.9,0.1,2.6,0.1c2.4,0,3.7-0.1,4-0.2c0.3-0.2,0.5-0.7,0.5-1.5v-1h1c-0.1,1.5-0.1,2.7-0.1,3.6
				c0,1,0,2.1,0.1,3.4h-1v-0.9c0-1-0.2-1.5-0.6-1.8c-0.4-0.2-1.7-0.3-4-0.3C7.8,231,6.9,231,6,231.1z"/>
			<path class="st0" d="M23.2,239.8c0.2-1.5,0.2-4.2,0.2-8.1v-4.3c0-1.8-0.1-3.3-0.2-4.6c-0.1-0.8-0.2-1.2-0.3-1.3
				c-0.1-0.1-0.5-0.2-1.2-0.3l-1.2-0.2V220c1.6,0,2.8,0.1,3.3,0.1l4,0l3.3-0.1c1.3,0,2.7,0.1,4.1,0.4c1.4,0.3,2.6,0.8,3.8,1.7
				c1.1,0.8,2,1.9,2.6,3.2c0.6,1.3,0.9,2.7,0.9,4.4c0,3.4-1.1,6.1-3.4,8.4c-2.3,2.2-5.2,3.3-8.9,3.3l-1.8,0
				c-1.8-0.1-2.9-0.1-3.4-0.1c-0.8,0-1.8,0.1-3.1,0.2v-0.7L23.2,239.8z M26.4,239.7c1.3,0.2,2.5,0.3,3.6,0.3c2.8,0,4.9-0.7,6.5-2.1
				c1.9-1.7,2.8-4.3,2.8-7.6c0-2.9-0.8-5.1-2.3-6.6c-1.6-1.5-3.8-2.3-6.8-2.3c-1.1,0-2.3,0.1-3.7,0.3c-0.1,1-0.2,2-0.2,3.3v9.8
				C26.2,236.4,26.3,238.1,26.4,239.7z"/>
			<path class="st0" d="M44.6,221V220c2,0.1,3.5,0.1,4.4,0.1c1,0,2.4,0,4.3-0.1v0.9h-1.1c-0.9,0-1.5,0.2-1.7,0.5
				c-0.2,0.4-0.3,2-0.3,4.9v5.9c0,2.1,0.1,3.6,0.3,4.5c0.2,0.8,0.8,1.5,1.8,2.1c1,0.6,2.3,0.9,3.9,0.9c1.7,0,3.1-0.3,4.3-0.9
				c0.8-0.4,1.4-1.1,1.8-2s0.6-2.6,0.6-5.1V226c0-2.6-0.1-4.1-0.3-4.5c-0.2-0.4-0.9-0.6-1.9-0.6h-0.8V220c2.1,0.1,3.4,0.1,3.9,0.1
				c0.9,0,2,0,3.4-0.1v0.9h-1c-0.8,0-1.3,0.2-1.5,0.6c-0.2,0.4-0.3,1.9-0.3,4.5v5.6c0,2.6-0.1,4.3-0.4,5.2c-0.2,0.9-0.7,1.7-1.4,2.4
				c-0.7,0.7-1.6,1.3-2.7,1.7s-2.4,0.6-3.9,0.6c-1.6,0-2.9-0.2-4.1-0.6s-2.1-0.8-2.7-1.4c-0.6-0.5-1-1.2-1.3-2s-0.4-2.1-0.4-4l0-2.8
				v-4.6c0-2.8-0.1-4.4-0.2-4.7c-0.2-0.3-0.7-0.5-1.6-0.5L44.6,221L44.6,221z"/>
			<path class="st0" d="M87.3,225.4l-0.1-2.7c-0.9-0.6-1.8-1-2.8-1.3c-1-0.3-2-0.4-3-0.4c-2.7,0-4.8,0.8-6.5,2.5s-2.4,3.8-2.4,6.6
				c0,1.9,0.4,3.6,1.2,5.1c0.8,1.5,2,2.7,3.5,3.6s3.1,1.3,4.8,1.3c1.3,0,2.7-0.1,4-0.5c1-0.2,2-0.7,2.9-1.4l0.3,0.3
				c-0.2,0.5-0.4,0.9-0.6,1.4c-1.2,0.6-2.3,1-3.5,1.3c-1.2,0.3-2.4,0.4-3.6,0.4c-2.4,0-4.6-0.5-6.5-1.4s-3.3-2.2-4.3-3.9
				s-1.5-3.5-1.5-5.6s0.5-4,1.5-5.6s2.4-2.9,4.3-3.9c1.8-0.9,4.1-1.4,6.8-1.4c1.4,0,3.1,0.2,4.9,0.7c0.9,0.2,1.7,0.4,2.3,0.5
				c-0.4,1.1-0.7,2.6-0.8,4.5L87.3,225.4L87.3,225.4z"/>
			<path class="st0" d="M105.5,234.1h-8.6l-1,2.4c-0.7,1.6-1,2.6-1,2.9c0,0.2,0.1,0.4,0.2,0.5c0.1,0.1,0.4,0.2,0.9,0.2l1.4,0.2v0.9
				c-1-0.1-2-0.1-3.2-0.1c-1.4,0-2.7,0-3.8,0.1v-0.9l0.4,0c0.7,0,1.2-0.1,1.3-0.2c0.2-0.1,0.4-0.4,0.7-0.9c0.7-1.4,1.4-3,2.2-4.6
				l4.1-9.3c1.1-2.5,1.8-4.3,2.2-5.4h1l7.6,17.6c0.5,1.2,0.9,1.9,1,2.2c0.2,0.2,0.4,0.4,0.6,0.5c0.2,0.1,0.7,0.2,1.5,0.2v0.9
				c-1.3-0.1-2.5-0.1-3.7-0.1c-1.1,0-2.6,0-4.4,0.1v-0.9l1.5-0.1c0.5,0,0.8-0.1,0.9-0.2c0.1-0.1,0.2-0.2,0.2-0.4
				c0-0.2-0.1-0.6-0.4-1.4L105.5,234.1z M97.4,232.9h7.5l-3.8-9L97.4,232.9z"/>
			<path class="st0" d="M123.5,221.4c-0.1,1.5-0.2,3.1-0.2,4.7v8.5c0,3.2,0.1,4.9,0.2,5.2c0.2,0.3,0.7,0.5,1.7,0.5h1.1v0.9
				c-1.8-0.1-3.3-0.1-4.5-0.1c-1.2,0-2.7,0-4.4,0.1v-0.9h1.2c0.7,0,1.1-0.1,1.3-0.3c0.2-0.2,0.3-0.5,0.4-1c0.1-1.2,0.1-2.7,0.1-4.5
				V226c0-1.7,0-3.2-0.1-4.6h-1.5c-2.4,0-3.8,0.1-4.1,0.2c-0.2,0.1-0.4,0.6-0.5,1.3l-0.2,2h-0.9l0-1.8c0-0.7-0.1-1.8-0.2-3.1
				c5.4,0.1,8.5,0.1,9.5,0.1l8.3-0.1c-0.2,1.7-0.3,3.3-0.3,4.9h-0.9l-0.1-2c-0.1-0.7-0.1-1.1-0.2-1.2c-0.1-0.1-0.4-0.2-0.7-0.2
				c-1.1-0.1-2.3-0.1-3.7-0.1L123.5,221.4L123.5,221.4z"/>
			<path class="st0" d="M133.4,240.3h0.9c0.9,0,1.5-0.2,1.7-0.7c0.2-0.5,0.3-2.6,0.3-6.4v-5.1c0-4-0.1-6.2-0.2-6.6s-0.6-0.6-1.4-0.6
				h-1.2V220c1.7,0.1,3.3,0.1,4.9,0.1c1.4,0,2.6,0,3.7-0.1v0.9h-1.2c-0.7,0-1.2,0.1-1.3,0.2s-0.3,0.6-0.3,1.3
				c-0.1,1.1-0.1,3-0.1,5.7v5.1c0,3.9,0.1,6,0.3,6.4c0.2,0.4,0.7,0.6,1.6,0.6h1v0.9c-1.2-0.1-2.6-0.1-4-0.1c-1.7,0-3.2,0-4.6,0.1
				L133.4,240.3L133.4,240.3z"/>
			<path class="st0" d="M144.8,230.6c0-3.3,1.1-5.9,3.2-7.9s4.9-3,8.4-3c3.4,0,6.1,0.9,8.1,2.8c2,1.9,2.9,4.3,2.9,7.4
				c0,3.3-1.1,6.1-3.4,8.3s-5.1,3.4-8.6,3.4c-2.2,0-4-0.4-5.6-1.3c-1.6-0.9-2.8-2.2-3.7-3.8C145.2,234.7,144.8,232.8,144.8,230.6z
				 M147.8,229.4c0,2.2,0.4,4.2,1.2,5.9s1.8,2.9,3.1,3.8c1.3,0.8,2.8,1.2,4.4,1.2c1.5,0,2.9-0.4,4.1-1.1c1.2-0.7,2.1-1.8,2.7-3.2
				c0.7-1.4,1-3.1,1-5.1c0-2.1-0.4-3.9-1.1-5.4c-0.7-1.5-1.7-2.6-3-3.4c-1.3-0.8-2.8-1.1-4.5-1.1c-1.6,0-3,0.3-4.1,1
				s-2.1,1.6-2.7,2.9C148.1,226.2,147.8,227.7,147.8,229.4z"/>
			<path class="st0" d="M174.3,223.4v10.3c0,2.4,0,4,0.1,4.9c0.1,0.7,0.2,1.1,0.4,1.3c0.2,0.1,0.6,0.3,1.4,0.3l1,0.1v0.9
				c-1.1-0.1-2.1-0.1-2.9-0.1c-0.6,0-2,0-4.2,0.1v-0.9h1.1c0.6,0,1.1-0.1,1.3-0.3s0.3-0.5,0.4-1.1c0.1-1.1,0.2-2.6,0.2-4.5v-7.4
				c0-1.4,0-2.8,0-4.1c0-0.6-0.1-1-0.2-1.2c-0.1-0.2-0.3-0.4-0.6-0.6c-0.3-0.2-0.6-0.2-1.1-0.2H170V220c1.3,0.1,2.2,0.1,2.9,0.1
				c0.7,0,1.5,0,2.4-0.1c1,1.2,1.9,2.4,2.8,3.5c0.9,1.1,1.8,2.3,2.7,3.4l5.1,6.3c1.8,2.2,3.2,3.8,4,4.7v-9.6c0-4-0.1-6.2-0.2-6.6
				c-0.1-0.4-0.7-0.6-1.7-0.7l-1.1-0.1V220c1.6,0.1,2.9,0.1,3.7,0.1c0.9,0,2.1,0,3.6-0.1v0.9H193c-0.9,0-1.5,0.3-1.6,0.9
				c-0.1,0.4-0.1,2.6-0.1,6.5v6.7c0,1.8,0.1,4,0.2,6.5c-1.4-0.2-2.1-0.4-2.4-0.5c-0.2-0.1-0.4-0.2-0.6-0.5c-1.1-1.2-2.3-2.6-3.5-4.1
				L174.3,223.4z"/>
			<path class="st0" d="M210.4,234.1h-8.6l-1,2.4c-0.7,1.6-1,2.6-1,2.9c0,0.2,0.1,0.4,0.2,0.5c0.1,0.1,0.4,0.2,0.9,0.2l1.4,0.2v0.9
				c-1-0.1-2-0.1-3.2-0.1c-1.4,0-2.7,0-3.8,0.1v-0.9l0.4,0c0.7,0,1.1-0.1,1.4-0.2c0.2-0.1,0.4-0.4,0.6-0.9c0.7-1.4,1.4-3,2.2-4.6
				l4.1-9.3c1.1-2.5,1.8-4.3,2.2-5.4h1l7.6,17.6c0.5,1.2,0.9,1.9,1,2.2c0.2,0.2,0.4,0.4,0.6,0.5c0.2,0.1,0.7,0.2,1.5,0.2v0.9
				c-1.3-0.1-2.5-0.1-3.7-0.1c-1.1,0-2.6,0-4.4,0.1v-0.9l1.5-0.1c0.5,0,0.8-0.1,0.9-0.2c0.1-0.1,0.2-0.2,0.2-0.4
				c0-0.2-0.1-0.6-0.4-1.4L210.4,234.1z M202.4,232.9h7.5l-3.8-9L202.4,232.9z"/>
			<path class="st0" d="M226.4,239.8c1,0,1.9,0.1,2.9,0.1c1.9,0,3.3,0,4.4-0.1c0.7-0.1,1.5-0.2,2.3-0.4l0.9-3.5h1
				c-0.2,1.9-0.4,3.6-0.6,5.3c-0.9,0.1-2.1,0.2-3.7,0.2l-7.1-0.1c-1,0-2.4,0-4.5,0.2v-0.8c0.8-0.4,1.3-0.7,1.4-1.1s0.2-2,0.2-4.7
				v-8.2c0-3-0.1-4.6-0.2-5c-0.1-0.3-0.5-0.5-1.2-0.5h-1.6V220c2.4,0.1,3.9,0.1,4.7,0.1c1,0,2.4,0,4.2-0.1v0.9h-1.9
				c-0.5,0-0.9,0.1-1,0.5c-0.1,0.3-0.2,1.6-0.2,3.8v9.5l0,4.2L226.4,239.8z"/>
		</g>
		<g>
			<path class="st0" d="M78.9,258.2c-0.1,1.5-0.2,3.1-0.2,4.7v8.5c0,3.2,0.1,4.9,0.2,5.2c0.2,0.3,0.7,0.5,1.7,0.5h1.1v0.9
				c-1.8-0.1-3.3-0.1-4.5-0.1c-1.2,0-2.7,0-4.4,0.1v-0.9h1.2c0.7,0,1.1-0.1,1.3-0.3c0.2-0.2,0.3-0.5,0.4-1c0.1-1.2,0.2-2.7,0.2-4.5
				v-8.5c0-1.7,0-3.2-0.1-4.6h-1.5c-2.4,0-3.8,0.1-4.1,0.2c-0.2,0.1-0.4,0.6-0.5,1.3l-0.2,2h-0.9l0-1.8c0-0.7-0.1-1.8-0.2-3.1
				c5.4,0.1,8.5,0.1,9.5,0.1l8.3-0.1c-0.2,1.7-0.3,3.3-0.3,4.9h-0.9l-0.2-2c-0.1-0.7-0.1-1.1-0.2-1.2c-0.1-0.1-0.3-0.2-0.7-0.2
				c-1.1-0.1-2.3-0.1-3.7-0.1L78.9,258.2L78.9,258.2z"/>
			<path class="st0" d="M99.7,267.3c1,1.4,2.2,3,3.6,4.9l2.9,3.7c0.5,0.6,0.9,1,1,1.1s0.3,0.1,0.5,0.1h0.4v0.9
				c-0.8-0.1-1.6-0.1-2.2-0.1c-0.6,0-1.2,0-1.8,0.1l-5.3-7.1c-1-1.3-2-2.6-3.2-3.9l0.1-0.5c0.6,0,1,0.1,1.3,0.1c1.7,0,3-0.4,3.9-1.3
				c0.9-0.9,1.4-2,1.4-3.4c0-1.3-0.4-2.3-1.2-3c-0.8-0.7-1.9-1.1-3.4-1.1c-1.1,0-2.1,0.2-3.1,0.6c-0.1,1.6-0.2,3.3-0.2,5.1v7.2
				c0,3.5,0.1,5.5,0.2,5.9c0.2,0.4,0.7,0.6,1.6,0.6h1.2v0.9c-1.6-0.1-3-0.1-4.1-0.1c-0.9,0-2.4,0-4.7,0.1v-0.9h1.1
				c0.9,0,1.4-0.2,1.5-0.6c0.2-0.4,0.2-2.3,0.2-5.9v-7.2c0-3.1-0.1-4.8-0.3-5.2c-0.2-0.4-0.8-0.5-1.8-0.5h-0.8v-0.9
				c1.8,0.1,3.3,0.1,4.2,0.1c0.7,0,1.6,0,2.8-0.1c1.4,0,2.5-0.1,3.1-0.1c1.7,0,3,0.2,3.9,0.5c0.9,0.4,1.6,0.9,2,1.6
				c0.5,0.7,0.7,1.5,0.7,2.5c0,1.4-0.5,2.6-1.5,3.7C103.1,266.2,101.6,266.9,99.7,267.3z"/>
			<path class="st0" d="M109.4,257.8v-0.9c2,0.1,3.5,0.1,4.4,0.1c1,0,2.4,0,4.3-0.1v0.9h-1.1c-0.9,0-1.5,0.2-1.7,0.5
				c-0.2,0.4-0.3,2-0.3,4.9v5.9c0,2.1,0.1,3.6,0.4,4.5c0.2,0.8,0.8,1.5,1.8,2.1c1,0.6,2.3,0.9,3.9,0.9c1.7,0,3.1-0.3,4.3-0.9
				c0.8-0.4,1.4-1.1,1.8-2s0.6-2.6,0.6-5.1v-5.6c0-2.6-0.1-4.1-0.4-4.5c-0.2-0.4-0.9-0.6-1.9-0.6h-0.8v-0.9c2.1,0.1,3.4,0.1,3.9,0.1
				c0.9,0,2,0,3.4-0.1v0.9h-1c-0.8,0-1.3,0.2-1.5,0.6c-0.2,0.4-0.3,1.9-0.3,4.5v5.6c0,2.6-0.1,4.3-0.4,5.2c-0.2,0.9-0.7,1.7-1.4,2.4
				c-0.7,0.7-1.6,1.3-2.7,1.7s-2.4,0.6-3.9,0.6c-1.6,0-2.9-0.2-4.1-0.6c-1.2-0.4-2.1-0.8-2.6-1.4c-0.6-0.5-1-1.2-1.3-2
				s-0.4-2.1-0.4-4l0-2.8V263c0-2.8-0.1-4.4-0.2-4.7c-0.2-0.3-0.7-0.5-1.6-0.5L109.4,257.8L109.4,257.8z"/>
			<path class="st0" d="M148.2,257.9c-0.3,1-0.4,2.4-0.4,4.1h-1v-1.2c0-0.8-0.1-1.3-0.3-1.6c-0.2-0.3-0.8-0.6-1.6-0.9
				c-0.9-0.3-1.8-0.5-2.8-0.5c-1.6,0-2.9,0.4-3.8,1.2c-0.9,0.8-1.4,1.8-1.4,3.1c0,0.8,0.2,1.5,0.6,2c0.4,0.6,0.9,1,1.5,1.2
				c0.6,0.2,2,0.5,4,0.7c2.1,0.2,3.4,0.5,4.2,0.8c0.7,0.3,1.3,0.9,1.7,1.6c0.4,0.7,0.6,1.6,0.6,2.6c0,2-0.8,3.7-2.5,5.2
				s-3.9,2.2-6.7,2.2c-1,0-1.9-0.1-2.9-0.3s-1.9-0.5-2.9-0.9c0.2-1.2,0.3-2.7,0.2-4.6h1v0.8c0,1,0.1,1.6,0.1,1.8
				c0.1,0.2,0.3,0.5,0.7,0.7c0.6,0.4,1.2,0.7,2,0.9c0.8,0.2,1.6,0.3,2.4,0.3c1.9,0,3.3-0.4,4.4-1.3c1-0.9,1.5-2,1.5-3.4
				c0-0.8-0.2-1.5-0.5-2s-0.8-1-1.5-1.2c-0.6-0.3-1.8-0.5-3.5-0.6c-2.2-0.2-3.8-0.5-4.6-0.8s-1.4-0.9-1.9-1.7
				c-0.5-0.8-0.7-1.7-0.7-2.9c0-1.9,0.7-3.5,2.1-4.8c1.4-1.2,3.4-1.9,5.8-1.9c1,0,2,0.1,3,0.3C146.2,257.1,147.2,257.4,148.2,257.9z
				"/>
			<path class="st0" d="M162.1,258.2c-0.1,1.5-0.2,3.1-0.2,4.7v8.5c0,3.2,0.1,4.9,0.2,5.2c0.2,0.3,0.7,0.5,1.7,0.5h1.1v0.9
				c-1.8-0.1-3.3-0.1-4.5-0.1c-1.2,0-2.7,0-4.4,0.1v-0.9h1.2c0.7,0,1.1-0.1,1.3-0.3s0.3-0.5,0.4-1c0.1-1.2,0.1-2.7,0.1-4.5v-8.5
				c0-1.7,0-3.2-0.1-4.6h-1.5c-2.4,0-3.8,0.1-4.1,0.2c-0.2,0.1-0.4,0.6-0.5,1.3l-0.2,2h-0.9l0-1.8c0-0.7-0.1-1.8-0.2-3.1
				c5.4,0.1,8.5,0.1,9.5,0.1l8.3-0.1c-0.2,1.7-0.3,3.3-0.3,4.9h-0.9l-0.1-2c-0.1-0.7-0.1-1.1-0.2-1.2c-0.1-0.1-0.4-0.2-0.7-0.2
				c-1.1-0.1-2.3-0.1-3.7-0.1L162.1,258.2L162.1,258.2z"/>
		</g>
	</g>
	<g>
		<g>
			<path class="st0" d="M141.9,111.4C141.8,111.4,141.8,111.4,141.9,111.4c-0.1,0-0.1,0-0.2,0c-3,0-5.5,2.4-5.5,5.5v32.5
				c1.8,0.4,3.7,0.7,5.6,0.9v0c0,0,0,0,0,0c0,0,0,0,0,0L141.9,111.4C141.9,111.4,141.9,111.4,141.9,111.4z"/>
		</g>
		<path class="st0" d="M67,0c0.2,14.3-1.5,107,48.8,140.9c0,0,0.1-35.7,0-39.4c-0.1-3.7-2.9-6.1-2.9-6.1h5.3c0-5.2,0.6-19,12.4-29.7
			l-0.1-0.1c2.5-2.5,2.7-7.1,2.7-7.1c0,0,0,0,0-0.1c0-2.1,0-6.2,0-6.2c-0.1-3.7-2.8-6.2-2.8-6.2h5.4c-0.7-1.4-1.1-2.5-1.1-3.9
			c0-3.4,2.4-6.3,5.7-7.1l0.3-6.2c-1.4-0.5-2.3-1.8-2.3-3.4c0-1.7,1.1-3,2.6-3.4l0.5-11.8h-8.1c-0.2,0.7-1.2,1.9-2.4,1.9
			c-1.4,0-2.5-1.2-2.5-2.5s1.1-2.4,2.5-2.4c1.2,0,2.2,0.6,2.4,2.1h8.2l0.4-9.3C141.9,0,67,0,67,0z"/>
		<path class="st0" d="M170.8,95.2h-5.3c-0.2-6-0.5-18.8-12.2-29.5v0c-2.9-2.5-2.9-7.1-2.9-7.1c0-2.8,0-5.2,0-6.3
			c0.1-3.7,2.9-6.3,2.9-6.3h-5.4c0.7-1.4,1.1-2.5,1.1-3.9c0-3.4-2.4-6.3-5.7-7l-0.3-6.2c1.4-0.5,2.3-1.8,2.3-3.4
			c0-1.7-1.1-3-2.6-3.4l-0.5-11.9h7.4c-1,1-1.4,2.7-1.5,4c1.9-1.9,4.2-3.7,7.2-4.7c-2.9-1-5.3-2.6-7.2-4.5c0,1.3,0.5,2.8,1.5,4.2
			h-7.5L141.9,0l-0.1,111.5c0,0,0.2,0,0.2,0c3,0,5.5,2.4,5.5,5.5v32.5c7.6-1.6,14.4-4.5,20.4-8.4c0,0-0.1-35.9,0-39.5
			C168,97.8,170.8,95.2,170.8,95.2z"/>
	</g>
</g>
</svg>
